<svg xmlns="http://www.w3.org/2000/svg" xmlns:xlink="http://www.w3.org/1999/xlink" viewBox="0,0,256,256" width="128px" height="128px" fill-rule="nonzero"><g fill="#000000" fill-rule="nonzero" stroke="none" stroke-width="1" stroke-linecap="butt" stroke-linejoin="miter" stroke-miterlimit="10" stroke-dasharray="" stroke-dashoffset="0" font-family="none" font-weight="none" font-size="none" text-anchor="none" style="mix-blend-mode: normal"><g transform="scale(16,16)"><path d="M4,1l4,3.5l4,-3.5zM14.44141,2.34375l-0.94141,0.65625c0.03516,0 0.0625,0.01172 0.09375,0.01953l-5.59375,3.87109l-5.59375,-3.87109c0.03125,-0.00781 0.05859,-0.01953 0.09375,-0.01953l-0.95312,-0.64844c-0.33203,0.27734 -0.54687,0.68359 -0.54687,1.14844v8c0,0.82813 0.67188,1.5 1.5,1.5h11c0.82813,0 1.5,-0.67187 1.5,-1.5v-8c0,-0.46875 -0.21875,-0.88281 -0.55859,-1.15625zM3,5.77344l5,3.46094l5,-3.46094v6.22656h-10z"></path></g></g></svg>